<?xml version="1.0" standalone="no"?>
<!DOCTYPE svg PUBLIC "-//W3C//DTD SVG 1.1//EN" "http://www.w3.org/Graphics/SVG/1.1/DTD/svg11.dtd" >
<!--
2013-9-30: Created.
-->
<svg>
<metadata>
Created by iconfont
</metadata>
<defs>

<font id="iconfont" horiz-adv-x="1024" >
  <font-face
    font-family="iconfont"
    font-weight="500"
    font-stretch="normal"
    units-per-em="1024"
    ascent="896"
    descent="-128"
  />
    <missing-glyph />
    
    <glyph glyph-name="liucheng" unicode="&#58935;" d="M803.84 684.544h-49.664v-49.664h49.664c26.624 0 51.712-10.24 70.656-29.184 18.944-18.944 29.184-44.032 29.184-70.656s-10.24-51.712-29.184-70.656c-18.944-18.944-44.032-29.184-70.656-29.184v49.664l-74.752-74.752 74.752-74.752v49.664c82.432 0 149.504 67.072 149.504 149.504-0.512 83.456-67.072 150.016-149.504 150.016zM729.088 659.968a24.576 24.576 0 1 1 49.152 0 24.576 24.576 0 1 1-49.152 0ZM83.968 262.144c0-82.432 67.072-149.504 149.504-149.504v-49.664l74.752 74.752-74.752 74.752v-49.664c-26.624 0-51.712 10.24-70.656 29.184-18.944 18.944-29.184 44.032-29.184 70.656s10.24 51.712 29.184 70.656c18.944 18.944 44.032 29.184 70.656 29.184h49.664v49.664h-49.664c-82.432-0.512-149.504-67.584-149.504-150.016zM258.56 387.072a24.576 24.576 0 1 1 49.152 0 24.576 24.576 0 1 1-49.152 0ZM596.992 565.248h-150.016c-61.44 0-111.616 50.176-111.616 111.616s50.176 111.616 111.616 111.616h150.016c61.44 0 111.616-50.176 111.616-111.616s-49.664-111.616-111.616-111.616z m-149.504 172.032c-33.28 0-60.416-27.136-60.416-60.416s27.136-60.416 60.416-60.416h150.016c33.28 0 60.416 27.136 60.416 60.416s-27.136 60.416-60.416 60.416h-150.016zM596.992 290.304h-150.016c-61.44 0-111.616 50.176-111.616 111.616s50.176 111.616 111.616 111.616h150.016c61.44 0 111.616-50.176 111.616-111.616s-49.664-111.616-111.616-111.616z m-149.504 172.032c-33.28 0-60.416-27.136-60.416-60.416 0-33.28 27.136-60.416 60.416-60.416h150.016c33.28 0 60.416 27.136 60.416 60.416 0 33.28-27.136 60.416-60.416 60.416h-150.016zM596.992 8.704h-150.016c-61.44 0-111.616 50.176-111.616 111.616s50.176 111.616 111.616 111.616h150.016c61.44 0 111.616-50.176 111.616-111.616s-49.664-111.616-111.616-111.616z m-149.504 172.032c-33.28 0-60.416-27.136-60.416-60.416s27.136-60.416 60.416-60.416h150.016c33.28 0 60.416 27.136 60.416 60.416s-27.136 60.416-60.416 60.416h-150.016z"  horiz-adv-x="1024" />

    
    <glyph glyph-name="shenhe" unicode="&#58889;" d="M603.2 740.4a31.8 31.7 0 1 1 63.6 0 31.8 31.7 0 1 1-63.6 0ZM833.1 256.1h-1.6S704.2 257.4 643 365.9c-37.1 75.6-4.5 128.2 9.3 145.6 1.8 2 3.6 4 5.3 6.1l0.2 0.2c22.8 27.2 38.2 60.9 42.9 97.9 0.3 1.7 0.4 3.4 0.4 5.2 0 17.4-14.2 31.5-31.7 31.5-16.8 0-30.6-13.1-31.6-29.5-3.9-28.9-17.5-54.7-37.4-74-0.5-0.4-1.3-1.5-1.3-1.5-1.7-2.4-11.5-16.2-18.6-29.5-35.5-72.8-16-164.8 37-227.9 32.9-34.8 79.5-77.4 186.2-97.8v-0.1c16.6-1.2 29.7-15.1 29.7-31.9v-30.9c0-0.5-0.4-1-1-1H193.2c-0.5 0-1 0.4-1 1v30.9c0 16.1 12 29.5 27.6 31.7l-0.1 0.2c107.1 20.4 153.8 63 186.8 97.9 53 63.1 72.5 155.1 37 227.9-4.9 11.2-9.6 18.6-18.8 29.8l-0.3 0.3c0.1-0.1 0.2-0.2 0.4-0.3 0 0-6.5 6.7-2 1.9-23.4 23-37.9 55.1-37.9 90.6 0 70.2 56.9 127.1 127.1 127.1 3 0 6-0.1 8.9-0.3 1.2-0.1 2.4-0.2 3.6-0.2 17.6 0 31.8 14.2 31.8 31.7s-14.2 31.7-31.8 31.7c-4.1 0.3-8.3 0.4-12.5 0.4-105.1 0-190.3-85.2-190.3-190.3 0-50.2 19.4-95.8 51.2-129.8 14.3-18.6 44.5-70.5 8.3-144.3C320 257.5 192.7 256.1 192.7 256.1c-35.2 0-64-28.8-64-64v-126.8c0-0.5 0.5-1 1-1H257c-0.6 0-1-0.5-1-1v-62.8c0-35.2 28.8-64 64-64h384.1c35.2 0 64 28.8 64 64v62.8c0 0.5-0.4 1-1 1h129c0.5 0 1 0.5 1 1V192.1c0 35.2-28.8 64-64 64z m-128-223.7c0-17.6-14.4-32-32-32H351c-17.6 0-32 14.4-32 32v31.9h386.1v-31.9z"  horiz-adv-x="1024" />

    
    <glyph glyph-name="gengduo" unicode="&#58888;" d="M515.328 384m-93.866667 0a93.866667 93.866667 0 1 1 187.733334 0 93.866667 93.866667 0 1 1-187.733334 0ZM887.466667 384m-93.866667 0a93.866667 93.866667 0 1 1 187.733333 0 93.866667 93.866667 0 1 1-187.733333 0ZM136.533333 384m-93.866666 0a93.866667 93.866667 0 1 1 187.733333 0 93.866667 93.866667 0 1 1-187.733333 0Z"  horiz-adv-x="1024" />

    
    <glyph glyph-name="zhineng" unicode="&#58887;" d="M669.7 233.3H354.4c-15.2 0-27.5 12.3-27.5 27.5 0 2.7 0.6 66.8 49.5 91.4 14.6 7.2 19.8 8.3 26.7 9.3 4.4 0.6 9.5 1.3 24.8 7.6 18.8 7.7 29.4 12.5 34.9 15.2l0.2 20.8c-4.6 5.5-11.4 16.3-15.1 34.9-0.7 0.3-1.3 0.8-1.9 1.2-8.4 6-10.1 18.1-10.4 24.8 0 1.1-0.2 2.6-0.4 4.3-1.1 10.3-2.4 22.9 4.4 30.2-1.9 14.8-2.3 24.1-1.6 30.1 2.7 28.6 29.6 60.5 74.1 62.6 51.2-2 72.1-33.9 74.9-63 0.5-6.1-0.1-15.4-1.9-29.8 6.6-7 5.9-18.5 4.3-31.7l-0.4-3.3c-0.2-4.8-1.6-17.8-10.5-24.1-0.6-0.4-1.2-0.8-1.8-1.1-3.7-18.8-10.6-29.6-15.2-35.1l-0.2-20.9c5.6-2.7 16.1-7.4 34.7-15h0.1c15.5-6.5 20.5-7.3 25-8 6.8-1.1 11.9-2.3 26.3-9.4 49-24.3 49.6-88.5 49.6-91.2 0.2-14.9-12.1-27.3-27.3-27.3zM459.2 461c1.7-0.2 3.4-0.8 4.9-1.8 2.8-1.8 4.6-4.8 5-8.1 3.1-24.3 12.3-32.6 12.4-32.7 2.5-2.2 4.2-5.6 4.2-8.9l-0.3-32.1c0-3.8-2-7.4-5.3-9.5-0.9-0.6-9.8-5.9-43.6-19.8-18-7.3-24.8-8.3-30.2-9.1-4.3-0.6-7.4-1-19.7-7.1-36.4-18.3-37-70.7-37-71.2 0-2.7 2.2-4.9 4.9-4.9h315.3c2.7 0 4.9 2.1 4.9 4.9 0 0.5-0.7 52.8-37 70.9-12.4 6.1-15.5 6.6-19.9 7.3-5.4 0.9-12.2 2-30.1 9.4-33.7 13.8-42.4 18.8-43.3 19.3-3.5 2.1-5.6 5.8-5.5 9.8l0.3 32.4c0 3.5 1.7 6.8 4.4 8.9 0 0 9.1 8.3 12.2 32.5 0.4 3.3 2.3 6.3 5.1 8.1 1.5 1 3.1 1.5 4.8 1.7 0.4 1.5 0.8 3.5 0.9 5.7l0.5 4.5c0.3 2.3 1 8.3 0.9 12.2-1 0.5-2 1.1-2.8 1.9-2.7 2.5-4 6.2-3.5 9.9 2.3 16.6 3.3 27.7 2.9 32.8-1.2 12.1-8.6 40.6-52.3 42.4-29.6-1.5-49.8-22.8-51.6-42.5-0.9-7.5 1.7-26.5 2.6-32.7 0.5-3.7-0.8-7.3-3.5-9.8-0.8-0.8-1.7-1.4-2.7-1.9-0.1-3.5 0.5-8.5 0.8-11.1 0.2-2.3 0.4-4.3 0.5-5.7 0-2.2 0.4-4.3 0.8-5.7zM512.1-3c-2 0-3.9 0.5-5.7 1.5l-325 187.7c-3.5 2-5.7 5.8-5.7 9.8V571.4c0 4 2.2 7.8 5.7 9.8l325 187.7c3.5 2 7.8 2 11.3 0l325.1-187.7c3.5-2 5.7-5.8 5.7-9.8V196c0-4-2.2-7.8-5.7-9.8L517.7-1.4c-1.7-1.1-3.7-1.6-5.6-1.6zM198.3 202.5L512 21.4l313.8 181.1V564.8L512.1 746 198.3 564.8v-362.3zM456.148762-14.622977a60.5 60.5 0 1 1 111.900627 46.03531 60.5 60.5 0 1 1-111.900627-46.03531ZM512.2-63.5c-28.3 0-55.1 16.8-66.5 44.5-7.3 17.8-7.3 37.3 0.1 55 7.4 17.7 21.2 31.5 39 38.8 36.7 15.1 78.7-2.5 93.8-39.1 15.1-36.6-2.5-78.7-39.1-93.8-9-3.6-18.2-5.4-27.3-5.4z m-0.2 121.1c-6.2 0-12.6-1.2-18.7-3.7-12.2-5-21.6-14.4-26.7-26.6-5.1-12.1-5.1-25.5-0.1-37.7 10.3-25.1 39.2-37.1 64.2-26.8 25.1 10.3 37.1 39.2 26.8 64.3-7.7 19-26.1 30.5-45.5 30.5zM456.164923 735.993263a60.5 60.5 0 1 1 111.900626 46.03531 60.5 60.5 0 1 1-111.900626-46.03531ZM512.2 687.2c-28.3 0-55.1 16.8-66.5 44.5-15.1 36.6 2.4 78.7 39.1 93.8 36.6 15 78.7-2.5 93.8-39.1 15.1-36.6-2.5-78.7-39.1-93.8-9-3.7-18.2-5.4-27.3-5.4z m-0.2 121c-6.2 0-12.6-1.2-18.7-3.7-25.1-10.3-37.1-39.1-26.8-64.2s39.2-37.1 64.2-26.8c25.1 10.3 37.1 39.2 26.8 64.3-7.7 18.9-26.1 30.4-45.5 30.4zM137.035632 548.38945a60.5 60.5 0 1 1 111.900627 46.03531 60.5 60.5 0 1 1-111.900627-46.03531ZM193 499.5c-9.4 0-18.7 1.9-27.6 5.6-17.7 7.4-31.5 21.2-38.8 39-7.3 17.7-7.3 37.3 0.1 55 7.4 17.7 21.2 31.5 39 38.8 36.6 15.1 78.7-2.5 93.8-39.1 15.1-36.6-2.5-78.7-39.1-93.8-8.9-3.7-18.2-5.5-27.4-5.5z m0 121.1c-6.4 0-12.7-1.2-18.7-3.7-12.2-5-21.6-14.4-26.7-26.6-5.1-12.1-5.1-25.5-0.1-37.7 5-12.2 14.4-21.6 26.6-26.7 12.2-5.1 25.5-5.1 37.7-0.1 25.1 10.3 37.1 39.2 26.8 64.2-5 12.2-14.4 21.7-26.6 26.7-6.2 2.6-12.6 3.9-19 3.9zM777.147639 548.384707a60.5 60.5 0 1 1 111.900626 46.035311 60.5 60.5 0 1 1-111.900626-46.035311ZM833.2 499.5c-28.3 0-55.1 16.8-66.5 44.5-7.3 17.7-7.3 37.3 0.1 55 7.4 17.7 21.2 31.5 39 38.8 36.6 15.1 78.7-2.5 93.8-39.1 15.1-36.6-2.5-78.7-39.1-93.8-9-3.7-18.2-5.4-27.3-5.4z m-0.2 121.1c-6.2 0-12.6-1.2-18.7-3.7-12.2-5-21.6-14.4-26.7-26.6-5.1-12.1-5.1-25.5-0.1-37.7 10.3-25.1 39.2-37.2 64.2-26.8 25.1 10.3 37.1 39.1 26.8 64.2-7.7 19.1-26.1 30.6-45.5 30.6zM137.065445 172.988622a60.5 60.5 0 1 1 111.900626 46.03531 60.5 60.5 0 1 1-111.900626-46.03531ZM193.1 124.2c-28.3 0-55.1 16.8-66.5 44.5-15.1 36.6 2.5 78.7 39.1 93.8 36.7 15.1 78.7-2.5 93.8-39.1 15.1-36.6-2.4-78.7-39.1-93.8-9-3.7-18.2-5.4-27.3-5.4z m-0.2 121c-6.2 0-12.5-1.2-18.7-3.7-25.1-10.3-37.1-39.2-26.8-64.2 10.3-25.1 39.2-37.1 64.2-26.8 25.1 10.3 37.1 39.2 26.8 64.2-7.7 19-26.1 30.5-45.5 30.5zM777.177071 172.983804a60.5 60.5 0 1 1 111.900626 46.035311 60.5 60.5 0 1 1-111.900626-46.035311ZM833.2 124.2c-28.3 0-55.1 16.8-66.5 44.5-15.1 36.6 2.4 78.7 39.1 93.8 36.6 15 78.7-2.5 93.8-39.1 15.1-36.6-2.5-78.7-39.1-93.8-9-3.7-18.2-5.4-27.3-5.4z m-0.2 121c-6.2 0-12.6-1.2-18.7-3.7-25.1-10.3-37.1-39.1-26.8-64.2s39.2-37.1 64.2-26.8c25.1 10.3 37.1 39.2 26.8 64.3-7.7 18.9-26.1 30.4-45.5 30.4z"  horiz-adv-x="1024" />

    
    <glyph glyph-name="shezhi" unicode="&#58900;" d="M887.466667 376.685714v73.142857h-75.580953c-7.314286 56.07619-29.257143 109.714286-63.390476 151.161905l53.638095 53.638095-51.2 51.2-53.638095-53.638095c-43.885714 34.133333-95.085714 56.07619-151.161905 63.390476V791.161905h-73.142857v-75.580953c-56.07619-7.314286-109.714286-29.257143-151.161905-63.390476L268.190476 708.266667 214.552381 654.628571l53.638095-53.638095c-34.133333-43.885714-56.07619-95.085714-63.390476-151.161905H129.219048v-73.142857h75.580952c7.314286-56.07619 29.257143-107.27619 63.390476-151.161904l-53.638095-53.638096 51.2-51.2 53.638095 53.638096c41.447619-34.133333 95.085714-56.07619 151.161905-63.390477v-78.019047h73.142857v78.019047c56.07619 7.314286 107.27619 29.257143 151.161905 63.390477l53.638095-53.638096 51.2 51.2-53.638095 53.638096c34.133333 41.447619 56.07619 95.085714 63.390476 151.161904h78.019048z m-609.52381 36.571429c0 126.780952 104.838095 231.619048 231.619048 231.619047s231.619048-104.838095 231.619047-231.619047-104.838095-231.619048-231.619047-231.619048-231.619048 104.838095-231.619048 231.619048zM509.561905 413.257143m-109.714286 0a109.714286 109.714286 0 1 1 219.428571 0 109.714286 109.714286 0 1 1-219.428571 0Z"  horiz-adv-x="1024" />

    
    <glyph glyph-name="fazhanlicheng" unicode="&#59101;" d="M501.028571 155.428571H224.914286c-10.971429 0-20.114286 9.142857-20.114286 20.114286s9.142857 20.114286 20.114286 20.114286H502.857143c10.971429 0 20.114286-9.142857 20.114286-20.114286s-10.971429-20.114286-21.942858-20.114286zM800.914286 384H522.971429c-10.971429 0-20.114286 9.142857-20.114286 20.114286 0 10.971429 9.142857 20.114286 20.114286 20.114285h277.942857c10.971429 0 20.114286-9.142857 20.114285-20.114285-1.828571-10.971429-9.142857-20.114286-20.114285-20.114286zM480.914286 20.114286h298.057143V-18.285714H480.914286v38.4z m23.771428 669.257143C453.485714 689.371429 411.428571 731.428571 411.428571 782.628571s42.057143 93.257143 93.257143 93.257143 93.257143-42.057143 93.257143-93.257143-42.057143-93.257143-93.257143-93.257142z m0 148.114285c-21.942857 0-42.057143-12.8-51.2-34.742857-9.142857-20.114286-3.657143-43.885714 12.8-60.342857 16.457143-16.457143 40.228571-20.114286 60.342857-12.8 20.114286 9.142857 34.742857 29.257143 34.742858 51.2-1.828571 32.914286-25.6 56.685714-56.685715 56.685714zM797.257143-36.571429H462.628571v74.971429h334.628572V-36.571429z m-298.057143 36.571429h261.485714v1.828571H499.2v-1.828571z m1.828571 137.142857H224.914286c-20.114286 0-38.4 16.457143-38.4 38.4 0 20.114286 16.457143 38.4 38.4 38.4H502.857143c20.114286 0 38.4-16.457143 38.4-38.4-1.828571-21.942857-18.285714-38.4-40.228572-38.4z m-276.114285 38.4v-1.828571H502.857143s1.828571 0 1.828571 1.828571H224.914286zM800.914286 365.714286H522.971429c-20.114286 0-38.4 16.457143-38.4 38.4s16.457143 38.4 38.4 38.4h277.942857c20.114286 0 38.4-16.457143 38.4-38.4s-18.285714-38.4-38.4-38.4z m-277.942857 40.228571v-3.657143h277.942857s1.828571 0 1.828571 1.828572l-279.771428 1.828571z m-18.285715 265.142857c-62.171429 0-111.542857 51.2-111.542857 111.542857S444.342857 894.171429 504.685714 894.171429s111.542857-51.2 111.542857-111.542858c0-62.171429-49.371429-111.542857-111.542857-111.542857z m0 186.514286C462.628571 857.6 429.714286 822.857143 429.714286 782.628571c0-42.057143 34.742857-74.971429 74.971428-74.971428 42.057143 0 74.971429 34.742857 74.971429 74.971428 0 42.057143-32.914286 74.971429-74.971429 74.971429z m0-148.114286c-18.285714 0-38.4 7.314286-51.2 21.942857-21.942857 21.942857-27.428571 53.028571-16.457143 80.457143 10.971429 27.428571 38.4 45.714286 67.657143 45.714286 40.228571 0 73.142857-32.914286 73.142857-73.142857 0-29.257143-18.285714-56.685714-45.714285-67.657143-9.142857-5.485714-18.285714-7.314286-27.428572-7.314286z m0 109.714286c-14.628571 0-29.257143-9.142857-34.742857-23.771429s-1.828571-27.428571 9.142857-38.4c10.971429-10.971429 27.428571-14.628571 40.228572-7.314285 14.628571 5.485714 23.771429 20.114286 23.771428 34.742857-1.828571 18.285714-18.285714 34.742857-38.4 34.742857zM853.942857-93.257143c-51.2 0-93.257143 42.057143-93.257143 93.257143s42.057143 93.257143 93.257143 93.257143 93.257143-42.057143 93.257143-93.257143-42.057143-93.257143-93.257143-93.257143z m0 148.114286c-21.942857 0-42.057143-12.8-51.2-34.742857-9.142857-20.114286-3.657143-43.885714 12.8-60.342857 16.457143-16.457143 40.228571-20.114286 60.342857-12.8 20.114286 9.142857 34.742857 29.257143 34.742857 51.2-1.828571 32.914286-25.6 56.685714-56.685714 56.685714zM482.742857 707.657143H521.142857V-18.285714h-38.4V707.657143zM853.942857-111.542857c-62.171429 0-111.542857 51.2-111.542857 111.542857s51.2 111.542857 111.542857 111.542857 111.542857-51.2 111.542857-111.542857c0-62.171429-49.371429-111.542857-111.542857-111.542857z m0 186.514286c-42.057143 0-74.971429-34.742857-74.971428-74.971429s34.742857-74.971429 74.971428-74.971429c42.057143 0 74.971429 34.742857 74.971429 74.971429 0 42.057143-32.914286 74.971429-74.971429 74.971429z m0-148.114286c-18.285714 0-38.4 7.314286-51.2 21.942857-21.942857 21.942857-27.428571 53.028571-16.457143 80.457143 10.971429 27.428571 38.4 45.714286 67.657143 45.714286 40.228571 0 73.142857-32.914286 73.142857-73.142858 0-29.257143-18.285714-56.685714-45.714285-67.657142-9.142857-5.485714-18.285714-7.314286-27.428572-7.314286z m0 109.714286c-14.628571 0-29.257143-9.142857-34.742857-23.771429-5.485714-14.628571-1.828571-29.257143 7.314286-40.228571 10.971429-10.971429 27.428571-14.628571 40.228571-7.314286 14.628571 5.485714 23.771429 20.114286 23.771429 34.742857 0 20.114286-16.457143 36.571429-36.571429 36.571429zM539.428571-34.742857h-74.971428V725.942857H539.428571v-760.685714z m-38.4 36.571428h1.828572V689.371429h-1.828572v-687.542858zM149.942857 91.428571c-51.2 0-93.257143 42.057143-93.257143 93.257143s42.057143 93.257143 93.257143 93.257143 93.257143-42.057143 93.257143-93.257143S201.142857 91.428571 149.942857 91.428571z m0 149.942858c-21.942857 0-42.057143-12.8-51.2-34.742858-9.142857-20.114286-3.657143-43.885714 12.8-60.342857s40.228571-20.114286 60.342857-12.8c20.114286 9.142857 34.742857 29.257143 34.742857 51.2-1.828571 31.085714-25.6 56.685714-56.685714 56.685715zM149.942857 73.142857C87.771429 73.142857 38.4 124.342857 38.4 184.685714s51.2 111.542857 111.542857 111.542857 111.542857-51.2 111.542857-111.542857S212.114286 73.142857 149.942857 73.142857z m0 188.342857c-42.057143 0-74.971429-34.742857-74.971428-74.971428 0-42.057143 34.742857-74.971429 74.971428-74.971429 42.057143 0 74.971429 34.742857 74.971429 74.971429 0 40.228571-32.914286 74.971429-74.971429 74.971428z m0-149.942857c-18.285714 0-38.4 7.314286-51.2 21.942857-21.942857 21.942857-27.428571 53.028571-16.457143 80.457143 10.971429 27.428571 38.4 45.714286 67.657143 45.714286 40.228571 0 73.142857-32.914286 73.142857-73.142857 0-29.257143-18.285714-56.685714-45.714285-67.657143-9.142857-5.485714-18.285714-7.314286-27.428572-7.314286z m0 111.542857c-14.628571 0-29.257143-9.142857-34.742857-23.771428-5.485714-14.628571-1.828571-29.257143 7.314286-40.228572s27.428571-12.8 42.057143-7.314285c14.628571 5.485714 23.771429 20.114286 23.771428 34.742857-1.828571 20.114286-18.285714 36.571429-38.4 36.571428zM875.885714 310.857143c-51.2 0-93.257143 42.057143-93.257143 93.257143s42.057143 93.257143 93.257143 93.257143 93.257143-42.057143 93.257143-93.257143-42.057143-93.257143-93.257143-93.257143z m0 148.114286c-31.085714 0-54.857143-25.6-54.857143-54.857143 0-31.085714 25.6-54.857143 54.857143-54.857143s54.857143 25.6 54.857143 54.857143c0 31.085714-25.6 54.857143-54.857143 54.857143zM875.885714 292.571429c-62.171429 0-111.542857 51.2-111.542857 111.542857s51.2 111.542857 111.542857 111.542857 111.542857-51.2 111.542857-111.542857c0-62.171429-51.2-111.542857-111.542857-111.542857z m0 186.514285c-42.057143 0-74.971429-34.742857-74.971428-74.971428 0-42.057143 34.742857-74.971429 74.971428-74.971429 42.057143 0 74.971429 34.742857 74.971429 74.971429 0 42.057143-34.742857 74.971429-74.971429 74.971428z m0-148.114285c-40.228571 0-73.142857 32.914286-73.142857 73.142857s32.914286 73.142857 73.142857 73.142857 73.142857-32.914286 73.142857-73.142857-32.914286-73.142857-73.142857-73.142857z m0 109.714285c-20.114286 0-36.571429-16.457143-36.571428-36.571428s16.457143-36.571429 36.571428-36.571429 36.571429 16.457143 36.571429 36.571429-16.457143 36.571429-36.571429 36.571428z"  horiz-adv-x="1024" />

    
    <glyph glyph-name="jiaoyimingxichaxun" unicode="&#58988;" d="M648.533333 782.222222v28.444445c0 17.066667 11.377778 28.444444 28.444445 28.444444s28.444444-11.377778 28.444444-28.444444V782.222222H796.444444c62.577778 0 113.777778-51.2 113.777778-113.777778v-682.666666c0-62.577778-51.2-113.777778-113.777778-113.777778H227.555556c-62.577778 0-113.777778 51.2-113.777778 113.777778V668.444444c0 62.577778 51.2 113.777778 113.777778 113.777778h79.644444v28.444445c0 17.066667 11.377778 28.444444 28.444444 28.444444s28.444444-11.377778 28.444445-28.444444V782.222222h113.777778v28.444445c0 17.066667 11.377778 28.444444 28.444444 28.444444s28.444444-11.377778 28.444445-28.444444V782.222222h113.777777zM227.555556 725.333333c-34.133333 0-56.888889-22.755556-56.888889-56.888889v-682.666666c0-34.133333 22.755556-56.888889 56.888889-56.888889h568.888888c34.133333 0 56.888889 22.755556 56.888889 56.888889V668.444444c0 34.133333-22.755556 56.888889-56.888889 56.888889H227.555556z m85.333333-113.777777h398.222222c17.066667 0 28.444444-11.377778 28.444445-28.444445s-11.377778-28.444444-28.444445-28.444444h-398.222222c-17.066667 0-28.444444 11.377778-28.444445 28.444444s11.377778 28.444444 28.444445 28.444445z m0-170.666667h398.222222c17.066667 0 28.444444-11.377778 28.444445-28.444445s-11.377778-28.444444-28.444445-28.444444h-398.222222c-17.066667 0-28.444444 11.377778-28.444445 28.444444s11.377778 28.444444 28.444445 28.444445z m0-170.666667h398.222222c17.066667 0 28.444444-11.377778 28.444445-28.444444s-11.377778-28.444444-28.444445-28.444445h-398.222222c-17.066667 0-28.444444 11.377778-28.444445 28.444445s11.377778 28.444444 28.444445 28.444444z m0-170.666666h398.222222c17.066667 0 28.444444-11.377778 28.444445-28.444445s-11.377778-28.444444-28.444445-28.444444h-398.222222c-17.066667 0-28.444444 11.377778-28.444445 28.444444s11.377778 28.444444 28.444445 28.444445z"  horiz-adv-x="1024" />

    
    <glyph glyph-name="dianzihuipiao" unicode="&#58994;" d="M227.555556 839.111111h568.888888c62.577778 0 113.777778-51.2 113.777778-113.777778v-716.8c0-34.133333-28.444444-62.577778-62.577778-62.577777-11.377778 0-22.755556 5.688889-34.133333 11.377777-56.888889 34.133333-130.844444 34.133333-187.733333 0h-5.688889c-62.577778-34.133333-136.533333-39.822222-199.111111 0l-5.688889 5.688889c-62.577778 34.133333-136.533333 34.133333-199.111111 0-34.133333-17.066667-73.955556-5.688889-91.022222 22.755556-5.688889 11.377778-11.377778 22.755556-11.377778 34.133333V725.333333c0 62.577778 51.2 113.777778 113.777778 113.777778z m0-56.888889c-34.133333 0-56.888889-22.755556-56.888889-56.888889v-716.8c0-5.688889 11.377778-5.688889 11.377777-5.688889 79.644444 45.511111 176.355556 45.511111 256 0l5.688889-5.688888c45.511111-22.755556 96.711111-22.755556 142.222223 0h5.688888c79.644444 45.511111 170.666667 45.511111 250.311112-5.688889 0 0 5.688889 0 5.688888 5.688889V725.333333c0 34.133333-22.755556 56.888889-56.888888 56.888889H227.555556z m62.577777-142.222222H739.555556c17.066667 0 28.444444-11.377778 28.444444-28.444444s-11.377778-28.444444-28.444444-28.444445H290.133333c-17.066667 0-28.444444 11.377778-28.444444 28.444445s11.377778 28.444444 28.444444 28.444444z m0-170.666667H739.555556c17.066667 0 28.444444-11.377778 28.444444-28.444444s-11.377778-28.444444-28.444444-28.444445H290.133333c-17.066667 0-28.444444 11.377778-28.444444 28.444445s11.377778 28.444444 28.444444 28.444444z m0-170.666666H739.555556c17.066667 0 28.444444-11.377778 28.444444-28.444445s-11.377778-28.444444-28.444444-28.444444H290.133333c-17.066667 0-28.444444 11.377778-28.444444 28.444444s11.377778 28.444444 28.444444 28.444445z"  horiz-adv-x="1024" />

    
    <glyph glyph-name="licaichanpin" unicode="&#58995;" d="M170.666667 839.111111h625.777777c62.577778 0 113.777778-51.2 113.777778-113.777778v-682.666666c0-62.577778-51.2-113.777778-113.777778-113.777778H170.666667c-62.577778 0-113.777778 51.2-113.777778 113.777778V725.333333c0 62.577778 51.2 113.777778 113.777778 113.777778z m0-56.888889c-34.133333 0-56.888889-22.755556-56.888889-56.888889v-682.666666c0-34.133333 22.755556-56.888889 56.888889-56.888889h625.777777c34.133333 0 56.888889 22.755556 56.888889 56.888889V725.333333c0 34.133333-22.755556 56.888889-56.888889 56.888889H170.666667z m164.977777-369.777778C256 412.444444 193.422222 475.022222 193.422222 554.666667s62.577778 142.222222 142.222222 142.222222S477.866667 634.311111 477.866667 554.666667 409.6 412.444444 335.644444 412.444444z m0 56.888889c45.511111 0 85.333333 39.822222 85.333334 85.333334s-39.822222 85.333333-85.333334 85.333333-85.333333-39.822222-85.333333-85.333333 34.133333-85.333333 85.333333-85.333334z m227.555556 170.666667h170.666667c17.066667 0 28.444444-11.377778 28.444444-28.444444s-11.377778-28.444444-28.444444-28.444445h-170.666667c-17.066667 0-28.444444 11.377778-28.444444 28.444445s11.377778 28.444444 28.444444 28.444444z m0-113.777778h170.666667c17.066667 0 28.444444-11.377778 28.444444-28.444444s-11.377778-28.444444-28.444444-28.444445h-170.666667c-17.066667 0-28.444444 11.377778-28.444444 28.444445s11.377778 28.444444 28.444444 28.444444z m-227.555556-455.111111c-79.644444 0-142.222222 62.577778-142.222222 142.222222s62.577778 142.222222 142.222222 142.222223 142.222222-62.577778 142.222223-142.222223-68.266667-142.222222-142.222223-142.222222z m0 56.888889c45.511111 0 85.333333 39.822222 85.333334 85.333333s-39.822222 85.333333-85.333334 85.333334-85.333333-39.822222-85.333333-85.333334 34.133333-85.333333 85.333333-85.333333z m227.555556 170.666667h170.666667c17.066667 0 28.444444-11.377778 28.444444-28.444445s-11.377778-28.444444-28.444444-28.444444h-170.666667c-17.066667 0-28.444444 11.377778-28.444444 28.444444s11.377778 28.444444 28.444444 28.444445z m0-113.777778h170.666667c17.066667 0 28.444444-11.377778 28.444444-28.444445s-11.377778-28.444444-28.444444-28.444444h-170.666667c-17.066667 0-28.444444 11.377778-28.444444 28.444444s11.377778 28.444444 28.444444 28.444445z"  horiz-adv-x="1024" />

    
    <glyph glyph-name="taizhangguanli" unicode="&#58996;" d="M648.533333 782.222222v28.444445c0 17.066667 11.377778 28.444444 28.444445 28.444444s28.444444-11.377778 28.444444-28.444444V782.222222H796.444444c62.577778 0 113.777778-51.2 113.777778-113.777778v-682.666666c0-62.577778-51.2-113.777778-113.777778-113.777778H227.555556c-62.577778 0-113.777778 51.2-113.777778 113.777778V668.444444c0 62.577778 51.2 113.777778 113.777778 113.777778h79.644444v28.444445c0 17.066667 11.377778 28.444444 28.444444 28.444444s28.444444-11.377778 28.444445-28.444444V782.222222h113.777778v28.444445c0 17.066667 11.377778 28.444444 28.444444 28.444444s28.444444-11.377778 28.444445-28.444444V782.222222h113.777777zM227.555556 725.333333c-34.133333 0-56.888889-22.755556-56.888889-56.888889v-682.666666c0-34.133333 22.755556-56.888889 56.888889-56.888889h568.888888c34.133333 0 56.888889 22.755556 56.888889 56.888889V668.444444c0 34.133333-22.755556 56.888889-56.888889 56.888889H227.555556z m85.333333-113.777777c17.066667 0 28.444444-11.377778 28.444444-28.444445s-11.377778-28.444444-28.444444-28.444444-28.444444 11.377778-28.444445 28.444444 11.377778 28.444444 28.444445 28.444445z m0-170.666667c17.066667 0 28.444444-11.377778 28.444444-28.444445s-11.377778-28.444444-28.444444-28.444444-28.444444 11.377778-28.444445 28.444444 11.377778 28.444444 28.444445 28.444445z m0-170.666667c17.066667 0 28.444444-11.377778 28.444444-28.444444s-11.377778-28.444444-28.444444-28.444445-28.444444 11.377778-28.444445 28.444445 11.377778 28.444444 28.444445 28.444444z m0-170.666666c17.066667 0 28.444444-11.377778 28.444444-28.444445s-11.377778-28.444444-28.444444-28.444444-28.444444 11.377778-28.444445 28.444444 11.377778 28.444444 28.444445 28.444445z m113.777778 512h284.444444c17.066667 0 28.444444-11.377778 28.444445-28.444445s-11.377778-28.444444-28.444445-28.444444h-284.444444c-17.066667 0-28.444444 11.377778-28.444445 28.444444s11.377778 28.444444 28.444445 28.444445z m0-170.666667h284.444444c17.066667 0 28.444444-11.377778 28.444445-28.444445s-11.377778-28.444444-28.444445-28.444444h-284.444444c-17.066667 0-28.444444 11.377778-28.444445 28.444444s11.377778 28.444444 28.444445 28.444445z m0-170.666667h284.444444c17.066667 0 28.444444-11.377778 28.444445-28.444444s-11.377778-28.444444-28.444445-28.444445h-284.444444c-17.066667 0-28.444444 11.377778-28.444445 28.444445s11.377778 28.444444 28.444445 28.444444z m0-170.666666h284.444444c17.066667 0 28.444444-11.377778 28.444445-28.444445s-11.377778-28.444444-28.444445-28.444444h-284.444444c-17.066667 0-28.444444 11.377778-28.444445 28.444444s11.377778 28.444444 28.444445 28.444445z"  horiz-adv-x="1024" />

    
    <glyph glyph-name="shishipiliangdaifa" unicode="&#58997;" d="M876.088889 799.288889c34.133333 0 56.888889-22.755556 56.888889-56.888889v-603.022222c0-34.133333-22.755556-56.888889-56.888889-56.888889h-73.955556v-73.955556c0-34.133333-22.755556-56.888889-56.888889-56.888889H147.911111c-34.133333 0-56.888889 22.755556-56.888889 56.888889V611.555556c0 34.133333 22.755556 56.888889 56.888889 56.888888h73.955556V742.4c0 34.133333 22.755556 56.888889 56.888889 56.888889h591.644444l34.133333-62.577778H284.444444v-585.955555h585.955556V799.288889h5.688889zM153.6 19.911111H739.555556v62.577778H221.866667V600.177778H159.288889v-580.266667z m398.222222 364.088889c-17.066667 0-28.444444 11.377778-28.444444 28.444444v227.555556c0 17.066667 11.377778 28.444444 28.444444 28.444444s28.444444-11.377778 28.444445-28.444444V440.888889h176.355555c17.066667 0 28.444444-11.377778 28.444445-28.444445s-11.377778-28.444444-28.444445-28.444444H551.822222z"  horiz-adv-x="1024" />

    
    <glyph glyph-name="jinjigaojing" unicode="&#58899;" d="M166.528391 6.620008c134.825264-123.615491 325.353398-165.910633 499.819857-110.957748 174.46446 54.958885 306.361783 198.815965 346.000979 377.384342 39.639196 178.574376-18.991615 364.726599-153.816879 488.34209C723.707084 884.996183 533.170951 927.289325 358.704491 872.34044 184.238031 817.387555 52.342708 673.530475 12.703512 494.956098c-39.639196-178.568376 18.999614-364.720599 153.824879-488.33609z m0 0M310.499469 334.187361h185.616234l-64.530691-298.865935L714.55327 433.807339h-185.620233l64.404693 298.873935-282.838261-398.493913z m0 0"  horiz-adv-x="1048" />

    
    <glyph glyph-name="sousuo" unicode="&#60039;" d="M445.938 68.062c-51.556 0-101.586 10.104-148.702 30.032-45.492 19.242-86.341 46.781-121.413 81.853-35.072 35.072-62.611 75.922-81.853 121.414-19.928 47.115-30.033 97.146-30.033 148.701S74.042 551.648 93.97 598.764c19.241 45.492 46.781 86.341 81.853 121.413s75.921 62.611 121.413 81.853c47.116 19.928 97.146 30.033 148.702 30.033S547.523 821.958 594.639 802.03c45.492-19.241 86.342-46.781 121.414-81.853 35.071-35.072 62.61-75.921 81.853-121.413 19.928-47.116 30.032-97.146 30.032-148.702s-10.104-101.586-30.032-148.701c-19.242-45.492-46.781-86.342-81.853-121.414-35.072-35.071-75.922-62.61-121.414-81.853-47.116-19.927-97.146-30.032-148.701-30.032z m0 700c-175.346 0-318-142.654-318-318s142.654-318 318-318 318 142.654 318 318-142.655 318-318 318zM905.474-53.729L677.886 173.859c-12.445 12.445-12.445 32.81 0 45.255s32.81 12.445 45.255 0l227.588-227.588c12.445-12.445 12.445-32.81 0-45.255s-32.81-12.445-45.255 0z"  horiz-adv-x="1024" />

    
    <glyph glyph-name="zuzhijiagou" unicode="&#58880;" d="M280.2949099 421.28270222H22.21576006v-412.87140608h258.07914984V421.28270222z m-51.64344679-361.22795931H73.85920685V369.63925543000005h154.79225626v-309.58451252zM641.66095328 421.28270222H383.58180347v-412.87140608h258.07914981V421.28270222z m-51.64344677-361.22795931H435.08716615V369.63925543000005h154.79225627v-309.58451252zM1001.50807177 421.28270222H743.42892193v-412.87140608h258.07914984V421.28270222z m-51.64344679-361.22795931H795.07236874V369.63925543000005h154.79225624v-309.58451252zM125.50265363 782.64874562h776.30871072v-51.64344679H125.50265363zM486.73061294 782.64874562h51.64344677v-412.87140609h-51.64344677zM125.50265363 782.64874562h51.64344679v-412.87140609h-51.64344679zM848.09665633 782.64874562h51.64344678v-412.87140609h-51.64344678z"  horiz-adv-x="1024" />

    
    <glyph glyph-name="anyewuleixingtongji" unicode="&#59005;" d="M87.438222-51.768889A30.264889 30.264889 0 0 0 56.888889-21.219556V751.672889c0 17.066667 13.425778 30.549333 30.549333 30.549333H191.146667c17.066667 0 30.549333-13.425778 30.549333-30.549333 0-17.066667-13.425778-30.549333-30.549333-30.549333H117.987556v-711.793778h777.557333V721.123556h-67.128889a30.264889 30.264889 0 0 0-30.492444 30.549333c0 17.066667 13.425778 30.549333 30.549333 30.549333h97.621333c17.066667 0 30.492444-13.425778 30.492445-30.549333v-772.892445c0-17.066667-13.425778-30.549333-30.492445-30.549333H87.438222zM316.871111 839.111111c17.976889 0 32.540444-14.563556 32.540445-32.483555v-130.048a32.483556 32.483556 0 1 0-65.024 0V806.627556C284.444444 824.547556 299.008 839.111111 316.928 839.111111z m130.048 0c17.976889 0 32.540444-14.563556 32.540445-32.483555v-130.048a32.483556 32.483556 0 0 0-65.024 0V806.627556c0 17.92 14.563556 32.483556 32.483555 32.483555z m130.048 0c17.92 0 32.483556-14.563556 32.483556-32.483555v-130.048a32.483556 32.483556 0 0 0-65.024 0V806.627556c0 17.92 14.563556 32.483556 32.540444 32.483555z m130.048 0c17.92 0 32.483556-14.563556 32.483556-32.483555v-130.048a32.483556 32.483556 0 0 0-65.024 0V806.627556c0 17.92 14.563556 32.483556 32.540444 32.483555zM199.111111 611.555556h625.777778a28.444444 28.444444 0 1 0 0-56.888889h-625.777778a28.444444 28.444444 0 0 0 0 56.888889z m-17.066667-441.742223a32.654222 32.654222 0 0 0-2.730666 46.933334L373.589333 438.613333a33.735111 33.735111 0 0 0 22.528 11.207111 34.759111 34.759111 0 0 0 23.893334-7.964444l180.280889-159.232 178.972444 204.856889a33.223111 33.223111 0 0 0 48.355556-45.568l-200.817778-228.010667a33.28 33.28 0 0 0-46.421334-1.934222L401.408 370.460444l-172.373333-196.664888a32.711111 32.711111 0 0 0-25.144889-11.889778 32.995556 32.995556 0 0 0-21.902222 7.964444z"  horiz-adv-x="1024" />

    
    <glyph glyph-name="xinzeng" unicode="&#59051;" d="M512-128C232.0896-128 0 98.816 0 387.4304 0 676.096 232.0896 896 512 896s512-226.816 512-515.4304C1024 91.904 791.9104-128 512-128z m0 54.8864c251.904 0 457.3696 206.848 457.3696 460.4416S763.904 841.1136 512 841.1136s-457.3696-206.848-457.3696-453.7856c0-246.8864 205.4656-460.4416 457.3696-460.4416zM747.52 414.72m0-30.72l0 0q0-30.72-30.72-30.72l-416.4096 0q-30.72 0-30.72 30.72l0 0q0 30.72 30.72 30.72l416.4096 0q30.72 0 30.72-30.72ZM477.8496 622.9504m30.72 0l0 0q30.72 0 30.72-30.72l0-416.4096q0-30.72-30.72-30.72l0 0q-30.72 0-30.72 30.72l0 416.4096q0 30.72 30.72 30.72Z"  horiz-adv-x="1024" />

    
    <glyph glyph-name="new" unicode="&#58890;" d="M738.742857 713.142857H285.257143C128 713.142857 0 585.142857 0 427.885714V18.285714l179.2 124.342857h559.542857c157.257143 0 285.257143 128 285.257143 285.257143S896 713.142857 738.742857 713.142857zM160.914286 526.628571h47.542857l87.771428-153.6v153.6h43.885715v-219.428571H292.571429l-87.771429 153.6v-157.257143H160.914286v223.085714z m394.971428-40.228571H438.857143v-47.542857h109.714286v-36.571429h-109.714286v-58.514285h120.685714v-40.228572h-168.228571v219.428572h160.914285l3.657143-36.571429z m84.114286 40.228571l29.257143-128 7.314286-36.571428 7.314285 32.914286 25.6 128h47.542857l25.6-128 7.314286-36.571429 7.314286 32.914286 29.257143 128h47.542857l-62.171429-219.428572H768l-25.6 128-10.971429 47.542857-7.314285-43.885714-29.257143-128h-43.885714l-62.171429 219.428572h51.2z"  horiz-adv-x="1024" />

    
    <glyph glyph-name="xiangmu" unicode="&#58923;" d="M812.8 652.8c89.6 0 160-70.4 160-160v-403.2c0-89.6-70.4-160-160-160H211.2C121.6-70.4 51.2 0 51.2 89.6V620.8c0 89.6 70.4 160 153.6 160h204.8c76.8 0 140.8-51.2 153.6-128h249.6zM211.2 736c-64 0-89.6-19.2-115.2-70.4v-12.8h428.8v12.8c-25.6 51.2-64 70.4-115.2 70.4H211.2z m716.8-646.4V486.4c0 70.4-51.2 121.6-121.6 121.6H96v-518.4c0-70.4 51.2-121.6 121.6-121.6h595.2c64 0 115.2 51.2 115.2 121.6zM825.6 409.6v-57.6H224v57.6h601.6z m-128-192v-57.6H224v57.6h473.6z"  horiz-adv-x="1024" />

    
    <glyph glyph-name="jiaojie" unicode="&#59190;" d="M781.473684 828.631579V896H309.894737v-67.368421h-269.473684v-943.157895h943.157894V828.631579H781.473684z m-404.210526 0h336.842105V761.263158H377.263158V828.631579z m538.947368-875.789474h-808.421052v808.421053h202.105263v-67.368421H781.473684V761.263158h134.736842v-808.421053zM468.237474 346.920421L391.329684 424.421053h322.721684V491.789474H391.437474l76.8 77.500631-47.21179 47.157895-158.989473-158.342737 158.989473-158.342737 47.157895 47.21179z m87.525052-47.104l76.853895-77.500632H309.894737v-67.368421h322.721684l-76.8-77.500631 47.104-47.104 158.989474 158.288842-158.989474 158.342737-47.104-47.21179z"  horiz-adv-x="1024" />

    
    <glyph glyph-name="shenqing" unicode="&#58881;" d="M795.4 145.4c-12.9 0-22.6-9.6-22.6-22.4v-126.4c0-8-6.5-14.4-14.5-14.4H123.8c-8.1 0-14.5 6.4-14.5 14.4v776c0 8 6.5 14.4 14.5 14.4h632.9c8.1 0 14.5-6.4 14.5-14.4V571c0-12.8 9.7-22.4 22.6-22.4 12.9 0 22.6 9.6 22.6 22.4V772.6c1.6 32-25.8 59.2-59.7 59.2H123.8c-32.3 0-59.7-27.2-59.7-59.2v-776c0-33.6 27.4-60.8 59.7-60.8h632.9c33.9 0 59.7 27.2 59.7 59.2V121.4c1.6 12.8-9.7 24-21 24M550.1 71.8l96.9 16-106.6 105.6-16.1-99.2c-1.7-14.4 9.6-24 25.8-22.4m300.2 366.4l16.1 16c6.5 6.4 12.9 6.4 16.1 6.4 3.2 0 9.7-1.6 16.1-6.4l11.3-11.2c8.1-8 8.1-22.4 0-32l-16.1-16-43.5 43.2zM658.2 163l-42 41.6 201.8 200 42-41.6-201.8-200z m282.5 312l-11.3 11.2c-12.9 12.8-30.7 19.2-48.4 19.2s-33.9-6.4-48.4-19.2l-48.4-48L572.7 227c-11.3-11.2-11.3-30.4 0-41.6l64.6-64c6.5-6.4 12.9-8 21-8s16.1 3.2 21 9.6l245.4 243.2 16.1 16c25.8 24 25.8 67.2-0.1 92.8z m-297 208H236.9c-12.9 0-22.6-9.6-22.6-22.4s9.7-22.4 22.6-22.4h406.8c12.9 0 22.6 9.6 22.6 22.4 0 11.2-9.7 22.4-22.6 22.4m22.6-187.2c0 12.8-9.7 22.4-22.6 22.4H236.9c-12.9 0-22.6-9.6-22.6-22.4s9.7-22.4 22.6-22.4h406.8c12.9 0 22.6 9.6 22.6 22.4M433.8 355h-197c-12.9 0-22.6-9.6-22.6-22.4s9.7-22.4 22.6-22.4h195.3c12.9 0 22.6 9.6 22.6 22.4 1.7 12.8-9.6 22.4-20.9 22.4m0-164.8h-197c-12.9 0-22.6-9.6-22.6-22.4 0-12.8 9.7-22.4 22.6-22.4h195.3c12.9 0 22.6 9.6 22.6 22.4 1.7 11.2-9.6 22.4-20.9 22.4"  horiz-adv-x="1024" />

    
    <glyph glyph-name="huikuanweixuanzhong" unicode="&#58882;" d="M512 800C281.6 800 96 614.4 96 384c0-78.933 21.333-153.6 61.867-217.6l55.466 34.133C179.2 256 162.133 317.867 162.133 384c0 194.133 157.867 352 352 352S864 578.133 864 384 706.133 32 512 32H256v42.667L85.333-32H512c230.4 0 416 185.6 416 416S742.4 800 512 800zM618.667 597.333l-104.534-192h-4.266l-104.534 192h-64l104.534-192H384v-64h96V320h-96v-64h96v-85.333h64V256h96v64h-96v21.333h96v64h-61.867l104.534 192z"  horiz-adv-x="1024" />

    
    <glyph glyph-name="shishiyunwei-daohang" unicode="&#58883;" d="M488.107 234.667h48.64v-208.214h-48.64zM624.64 509.44h48.64v-148.48h-48.64z m-187.733 0h48.64v-148.48h-48.64z m93.866 85.333h48.64V360.96h-48.64zM343.04 449.707h48.64v-88.747h-48.64zM322.56 75.093h387.413v-48.64H322.56z m-153.6 163.84h686.08v-48.64H168.96z m0 469.334h686.08v-48.64H168.96zM806.4 706.56h48.64v-515.413H806.4z m-637.44 0h48.64v-515.413h-48.64z"  horiz-adv-x="1024" />

    
    <glyph glyph-name="shoukuan" unicode="&#58884;" d="M714.335 832.095A43.236 43.236 0 0 0 757 789.428v-424.391H957.63L573.061-31.858a84.764 84.764 0 0 0-121.363 0L67.318 365.037h200.628v424.58a42.856 42.856 0 0 0 42.667 42.667h403.722z m0 63.905H310.424a106.951 106.951 0 0 1-106.762-106.382V429.32H62.388a61.82 61.82 0 0 1-44.563-105.244l392.723-408.652a141.274 141.274 0 0 1 203.662 0l392.723 408.652a61.82 61.82 0 0 1-44.563 104.676H821.096V789.049A106.951 106.951 0 0 1 714.335 896zM627.484 356.314a34.133 34.133 0 1 0 0-68.077h-70.732v-42.477a44.373 44.373 0 0 0-88.557 0v42.477h-70.921a34.133 34.133 0 1 0 0 68.077h70.921v34.133h-70.921a34.133 34.133 0 1 0 0 68.077h70.921v1.328l-78.886 75.852a33.375 33.375 0 0 0 0 48.355 36.599 36.599 0 0 0 50.252 0l72.818-68.456 72.249 69.215a37.926 37.926 0 0 0 50.441 0 32.996 32.996 0 0 0 0-48.356l-77.558-74.524v-3.414h70.732a34.133 34.133 0 1 0 0-68.077h-71.68v-34.133z"  horiz-adv-x="1024" />

    
    <glyph glyph-name="shenpi" unicode="&#58885;" d="M780.276 448.613c-59.189 0-107.547-48.386-107.547-107.486 0-37.641 21.488-75.256 53.742-91.445 16.158-10.715 32.259-16.13 53.806-16.13 21.509 0 37.582 5.415 53.742 16.13 32.259 16.189 53.801 53.804 53.801 91.445-0.003 59.1-48.389 107.486-107.544 107.486z m26.896-155.874c-10.803-5.415-16.186-10.77-32.285-10.77-10.771 0-21.515 5.355-32.26 10.77-16.158 10.744-21.541 26.876-21.541 42.971 0 26.9 26.898 53.805 53.8 53.805 32.286 0 53.748-26.904 53.748-53.805 5.382-16.099-5.361-32.226-21.462-42.97z m0 0M403.89-72.901H135.055C59.766-72.901 0.609-13.765 0.609 61.49V760.495C0.609 835.768 59.766 894.914 135.054 894.914h591.415c75.321 0 134.45-59.146 134.45-134.419V599.19c0-16.142-10.77-26.887-26.903-26.887-16.154 0-26.838 10.745-26.838 26.887V760.495c0 43.015-37.675 80.645-80.705 80.645h-591.42c-43.028 0-80.67-37.63-80.67-80.645v-699.004c0-43.002 37.642-80.645 80.67-80.645h268.838c16.132 0 26.903-10.717 26.903-26.844 0-16.158-10.771-26.903-26.903-26.903z m0 0M618.986 626.061H242.602c-16.127 0-26.898 10.771-26.898 26.887 0 16.144 10.771 26.887 26.898 26.887h376.384c16.099 0 26.87-10.743 26.87-26.887 0.001-16.116-10.77-26.887-26.87-26.887z m0-161.288H242.602c-16.127 0-26.898 10.743-26.898 26.87 0 16.149 10.771 26.903 26.898 26.903h376.384c16.099 0 26.87-10.76 26.87-26.903 0.001-16.127-10.77-26.87-26.87-26.87z m209.648-204.347l-21.46 32.313c-10.803-5.415-16.187-10.77-32.286-10.77-10.77 0-21.514 5.355-32.259 10.77l-16.158-32.313-129.03-231.162h371.028L828.634 260.426z m-48.358-26.875l107.543-198.966H678.083l102.193 198.966z m0 0M968.468-19.154V-72.9H592.084v53.747h376.384z m0 53.74H592.084c-32.286 0-53.801-21.453-53.801-53.74V-72.9c0-32.254 21.514-53.768 53.8-53.768h376.385c32.253 0 53.741 21.514 53.741 53.768v53.747c0 26.9-26.843 53.74-53.741 53.74"  horiz-adv-x="1024" />

    
    <glyph glyph-name="yijiaojie" unicode="&#58886;" d="M997.621 610.342a21.634 21.634 0 0 1-4.42 6.632L750.72 859.246a23.579 23.579 0 0 1-6.631 4.422 18.657 18.657 0 0 1-7.723 1.532H130.214A101.124 101.124 0 0 1 29.208 764.194v-767.933a101.124 101.124 0 0 1 101.006-101.036h767.934a101.124 101.124 0 0 1 101.006 101.036V602.59a19.335 19.335 0 0 1-1.562 7.722zM756.675 796.262l173.54-173.54h-173.54z m141.473-860.629H130.214a60.657 60.657 0 0 0-60.568 60.569V764.194a60.657 60.657 0 0 0 60.568 60.568h585.994v-222.378a20.19 20.19 0 0 1 20.1-20.1h222.379V-3.74a60.657 60.657 0 0 0-60.569-60.569z m0 0M775.921 355.013a15.945 15.945 0 0 1 0.884 4.42v0.443a11.141 11.141 0 0 1-0.678 2.947 29.68 29.68 0 0 1-0.884 4.421 16.387 16.387 0 0 1-2.21 3.743c-0.649 0.885-0.885 1.769-1.533 2.653L625.812 535.214a20.19 20.19 0 1 1-30.063-26.968l115.183-128.033H271.776a20.13 20.13 0 0 1 0-40.232h484.899a17.684 17.684 0 0 1 7.516 1.562 20.071 20.071 0 0 1 2.947 1.769 26.526 26.526 0 0 1 3.33 2.004c0.207 0.236 0.207 0.236 0.207 0.442a24.434 24.434 0 0 1 2.947 3.743 19.394 19.394 0 0 1 1.768 2.653 29.474 29.474 0 0 1 0.649 2.947z m-19.246-96.172H271.687c-0.884 0-1.768-0.443-2.652-0.443a36.724 36.724 0 0 1-4.628-0.884 17.095 17.095 0 0 1-3.772-2.21c-0.884-0.678-1.769-0.885-2.653-1.562-0.206-0.207-0.206-0.207-0.206-0.443a36.93 36.93 0 0 1-2.653-3.536 18.598 18.598 0 0 1-1.768-2.653c-0.442-1.12-0.442-2.21-0.884-3.33a15.444 15.444 0 0 1-0.885-4.422v-0.442a11.112 11.112 0 0 1 0.678-2.947 29.975 29.975 0 0 1 0.884-4.421 12.733 12.733 0 0 1 2.21-3.743 8.842 8.842 0 0 1 1.534-2.417l145.687-161.604a20.13 20.13 0 0 1 15.032-6.631 20.631 20.631 0 0 1 13.499 5.099 20.071 20.071 0 0 1 1.532 28.53L317.253 218.756h439.628a20.013 20.013 0 1 1-0.236 40.026z m0 0"  horiz-adv-x="1024" />

    


  </font>
</defs>
</svg>
